<?xml version="1.0" encoding="UTF-8" standalone="no"?>
<!DOCTYPE svg PUBLIC "-//W3C//DTD SVG 1.1//EN"
 "http://www.w3.org/Graphics/SVG/1.1/DTD/svg11.dtd">
<!-- Generated by graphviz version 2.38.0 (20140413.2041)
 -->
<!-- Title: code&#45;exec Pages: 1 -->
<svg width="812pt" height="597pt"
 viewBox="0.00 0.00 811.50 597.00" xmlns="http://www.w3.org/2000/svg" xmlns:xlink="http://www.w3.org/1999/xlink">
<g id="graph0" class="graph" transform="scale(1 1) rotate(0) translate(4 593)">
<title>code&#45;exec</title>
<polygon fill="white" stroke="none" points="-4,4 -4,-593 807.5,-593 807.5,4 -4,4"/>
<!-- HTML Application -->
<g id="node1" class="node"><title>HTML Application</title>
<polygon fill="none" stroke="black" points="312.5,-342 199.387,-324 312.5,-306 425.613,-324 312.5,-342"/>
<text text-anchor="middle" x="312.5" y="-320.3" font-family="Times,serif" font-size="14.00">HTML Application</text>
</g>
<!-- VB Script -->
<g id="node7" class="node"><title>VB Script</title>
<polygon fill="none" stroke="black" points="445.5,-269 380.479,-251 445.5,-233 510.521,-251 445.5,-269"/>
<text text-anchor="middle" x="445.5" y="-247.3" font-family="Times,serif" font-size="14.00">VB Script</text>
</g>
<!-- HTML Application&#45;&gt;VB Script -->
<g id="edge25" class="edge"><title>HTML Application&#45;&gt;VB Script</title>
<path fill="none" stroke="black" d="M337.205,-309.812C359.355,-297.987 391.91,-280.608 415.539,-267.994"/>
<polygon fill="black" stroke="black" points="417.258,-271.044 424.431,-263.247 413.962,-264.869 417.258,-271.044"/>
</g>
<!-- JScript -->
<g id="node16" class="node"><title>JScript</title>
<polygon fill="none" stroke="black" points="312.5,-269 262.731,-251 312.5,-233 362.269,-251 312.5,-269"/>
<text text-anchor="middle" x="312.5" y="-247.3" font-family="Times,serif" font-size="14.00">JScript</text>
</g>
<!-- HTML Application&#45;&gt;JScript -->
<g id="edge26" class="edge"><title>HTML Application&#45;&gt;JScript</title>
<path fill="none" stroke="black" d="M312.5,-305.813C312.5,-297.789 312.5,-288.047 312.5,-279.069"/>
<polygon fill="black" stroke="black" points="316,-279.029 312.5,-269.029 309,-279.029 316,-279.029"/>
</g>
<!-- LNK -->
<g id="node2" class="node"><title>LNK</title>
<polygon fill="none" stroke="black" points="498.5,-589 444.5,-589 444.5,-553 498.5,-553 498.5,-589"/>
<text text-anchor="middle" x="471.5" y="-567.3" font-family="Times,serif" font-size="14.00">LNK</text>
</g>
<!-- EXE -->
<g id="node14" class="node"><title>EXE</title>
<polygon fill="none" stroke="black" points="498.5,-516 444.5,-516 444.5,-480 498.5,-480 498.5,-516"/>
<text text-anchor="middle" x="471.5" y="-494.3" font-family="Times,serif" font-size="14.00">EXE</text>
</g>
<!-- LNK&#45;&gt;EXE -->
<g id="edge22" class="edge"><title>LNK&#45;&gt;EXE</title>
<path fill="none" stroke="black" d="M471.5,-552.813C471.5,-544.789 471.5,-535.047 471.5,-526.069"/>
<polygon fill="black" stroke="black" points="475,-526.029 471.5,-516.029 468,-526.029 475,-526.029"/>
</g>
<!-- SCT -->
<g id="node3" class="node"><title>SCT</title>
<polygon fill="none" stroke="black" points="39.5,-342 1.62819,-324 39.5,-306 77.3718,-324 39.5,-342"/>
<text text-anchor="middle" x="39.5" y="-320.3" font-family="Times,serif" font-size="14.00">SCT</text>
</g>
<!-- SCT&#45;&gt;JScript -->
<g id="edge19" class="edge"><title>SCT&#45;&gt;JScript</title>
<path fill="none" stroke="black" d="M59.4611,-315.218C67.7544,-312.132 77.5222,-308.687 86.5,-306 150.679,-286.792 226.694,-269.781 272.182,-260.199"/>
<polygon fill="black" stroke="black" points="273.164,-263.57 282.237,-258.098 271.732,-256.718 273.164,-263.57"/>
</g>
<!-- Shellcode -->
<g id="node4" class="node"><title>Shellcode</title>
<polygon fill="none" stroke="black" points="531.5,-36 467.318,-18 531.5,-3.55271e-15 595.682,-18 531.5,-36"/>
<text text-anchor="middle" x="531.5" y="-14.3" font-family="Times,serif" font-size="14.00">Shellcode</text>
</g>
<!-- Win32API -->
<g id="node22" class="node"><title>Win32API</title>
<ellipse fill="none" stroke="black" cx="531.5" cy="-91" rx="49.2915" ry="18"/>
<text text-anchor="middle" x="531.5" y="-87.3" font-family="Times,serif" font-size="14.00">Win32API</text>
</g>
<!-- Shellcode&#45;&gt;Win32API -->
<g id="edge21" class="edge"><title>Shellcode&#45;&gt;Win32API</title>
<path fill="none" stroke="black" d="M537.199,-34.5758C538.172,-42.7855 538.469,-53.0977 538.092,-62.5938"/>
<polygon fill="black" stroke="black" points="534.583,-62.5934 537.378,-72.8129 541.566,-63.0809 534.583,-62.5934"/>
</g>
<!-- XML -->
<g id="node5" class="node"><title>XML</title>
<polygon fill="none" stroke="black" points="138.5,-342 95.0983,-324 138.5,-306 181.902,-324 138.5,-342"/>
<text text-anchor="middle" x="138.5" y="-320.3" font-family="Times,serif" font-size="14.00">XML</text>
</g>
<!-- XML&#45;&gt;JScript -->
<g id="edge9" class="edge"><title>XML&#45;&gt;JScript</title>
<path fill="none" stroke="black" d="M159.488,-314.436C189.728,-302.097 245.777,-279.226 280.997,-264.855"/>
<polygon fill="black" stroke="black" points="282.403,-268.061 290.34,-261.042 279.759,-261.58 282.403,-268.061"/>
</g>
<!-- C# -->
<g id="node6" class="node"><title>C#</title>
<polygon fill="none" stroke="black" points="347.5,-182 318.174,-164 347.5,-146 376.826,-164 347.5,-182"/>
<text text-anchor="middle" x="347.5" y="-160.3" font-family="Times,serif" font-size="14.00">C#</text>
</g>
<!-- C#&#45;&gt;Win32API -->
<g id="edge10" class="edge"><title>C#&#45;&gt;Win32API</title>
<path fill="none" stroke="black" d="M363.881,-155.836C381.106,-148.375 409.051,-136.475 433.5,-127 450.961,-120.233 470.349,-113.207 487.241,-107.243"/>
<polygon fill="black" stroke="black" points="488.589,-110.479 496.865,-103.863 486.27,-103.874 488.589,-110.479"/>
</g>
<!-- VB Script&#45;&gt;Win32API -->
<g id="edge12" class="edge"><title>VB Script&#45;&gt;Win32API</title>
<path fill="none" stroke="black" d="M445.999,-232.946C447.333,-211.288 452.055,-173.44 468.5,-146 476.187,-133.173 487.999,-121.87 499.326,-112.964"/>
<polygon fill="black" stroke="black" points="501.506,-115.704 507.422,-106.915 497.316,-110.096 501.506,-115.704"/>
</g>
<!-- DLL -->
<g id="node8" class="node"><title>DLL</title>
<polygon fill="none" stroke="black" points="531.5,-182 477.5,-182 477.5,-146 531.5,-146 531.5,-182"/>
<text text-anchor="middle" x="504.5" y="-160.3" font-family="Times,serif" font-size="14.00">DLL</text>
</g>
<!-- DLL&#45;&gt;Win32API -->
<g id="edge14" class="edge"><title>DLL&#45;&gt;Win32API</title>
<path fill="none" stroke="black" d="M511.036,-145.813C514.153,-137.615 517.953,-127.623 521.428,-118.485"/>
<polygon fill="black" stroke="black" points="524.741,-119.62 525.024,-109.029 518.198,-117.132 524.741,-119.62"/>
</g>
<!-- WMI -->
<g id="node9" class="node"><title>WMI</title>
<ellipse fill="none" stroke="black" cx="559.5" cy="-251" rx="30.5947" ry="18"/>
<text text-anchor="middle" x="559.5" y="-247.3" font-family="Times,serif" font-size="14.00">WMI</text>
</g>
<!-- WMI&#45;&gt;Win32API -->
<g id="edge20" class="edge"><title>WMI&#45;&gt;Win32API</title>
<path fill="none" stroke="black" d="M556.45,-232.79C551.611,-205.485 542.132,-151.994 536.352,-119.38"/>
<polygon fill="black" stroke="black" points="539.737,-118.424 534.546,-109.188 532.845,-119.646 539.737,-118.424"/>
</g>
<!-- wmic.exe -->
<g id="node10" class="node"><title>wmic.exe</title>
<polygon fill="none" stroke="black" points="467.5,-429 397.5,-429 397.5,-393 467.5,-393 467.5,-429"/>
<text text-anchor="middle" x="432.5" y="-407.3" font-family="Times,serif" font-size="14.00">wmic.exe</text>
</g>
<!-- wmic.exe&#45;&gt;WMI -->
<g id="edge1" class="edge"><title>wmic.exe&#45;&gt;WMI</title>
<path fill="none" stroke="black" d="M467.965,-394.925C489.82,-383.673 516.296,-366.079 530.5,-342 542.058,-322.406 549.6,-297.654 554.088,-279.069"/>
<polygon fill="black" stroke="black" points="557.53,-279.714 556.329,-269.188 550.704,-278.166 557.53,-279.714"/>
</g>
<!-- XSL -->
<g id="node21" class="node"><title>XSL</title>
<polygon fill="none" stroke="black" points="482.5,-342 443.791,-324 482.5,-306 521.209,-324 482.5,-342"/>
<text text-anchor="middle" x="482.5" y="-320.3" font-family="Times,serif" font-size="14.00">XSL</text>
</g>
<!-- wmic.exe&#45;&gt;XSL -->
<g id="edge4" class="edge"><title>wmic.exe&#45;&gt;XSL</title>
<path fill="none" stroke="black" d="M442.618,-392.799C450.343,-379.667 461.048,-361.469 469.422,-347.232"/>
<polygon fill="black" stroke="black" points="472.481,-348.936 474.534,-338.542 466.447,-345.387 472.481,-348.936"/>
<g id="a_edge4&#45;label"><a xlink:href="https://subt0x11.blogspot.com/2018/04/wmicexe-whitelisting-bypass-hacking.html" xlink:title="subtee">
<text text-anchor="middle" x="478" y="-363.8" font-family="Times,serif" font-size="14.00">subtee</text>
</a>
</g>
</g>
<!-- PubPrn.vbs -->
<g id="node11" class="node"><title>PubPrn.vbs</title>
<polygon fill="none" stroke="black" points="79,-429 7.10543e-15,-429 7.10543e-15,-393 79,-393 79,-429"/>
<text text-anchor="middle" x="39.5" y="-407.3" font-family="Times,serif" font-size="14.00">PubPrn.vbs</text>
</g>
<!-- PubPrn.vbs&#45;&gt;SCT -->
<g id="edge23" class="edge"><title>PubPrn.vbs&#45;&gt;SCT</title>
<path fill="none" stroke="black" d="M39.5,-392.799C39.5,-381.163 39.5,-365.548 39.5,-352.237"/>
<polygon fill="black" stroke="black" points="43.0001,-352.175 39.5,-342.175 36.0001,-352.175 43.0001,-352.175"/>
<text text-anchor="middle" x="65.5" y="-363.8" font-family="Times,serif" font-size="14.00">scrobj.dll</text>
</g>
<!-- mshta.exe -->
<g id="node12" class="node"><title>mshta.exe</title>
<polygon fill="none" stroke="black" points="377.5,-429 305.5,-429 305.5,-393 377.5,-393 377.5,-429"/>
<text text-anchor="middle" x="341.5" y="-407.3" font-family="Times,serif" font-size="14.00">mshta.exe</text>
</g>
<!-- mshta.exe&#45;&gt;HTML Application -->
<g id="edge24" class="edge"><title>mshta.exe&#45;&gt;HTML Application</title>
<path fill="none" stroke="black" d="M335.631,-392.799C331.543,-380.815 326.015,-364.613 321.388,-351.052"/>
<polygon fill="black" stroke="black" points="324.606,-349.644 318.065,-341.31 317.981,-351.905 324.606,-349.644"/>
</g>
<!-- VBA -->
<g id="node13" class="node"><title>VBA</title>
<polygon fill="none" stroke="black" points="618.5,-342 577.275,-324 618.5,-306 659.725,-324 618.5,-342"/>
<text text-anchor="middle" x="618.5" y="-320.3" font-family="Times,serif" font-size="14.00">VBA</text>
</g>
<!-- VBA&#45;&gt;WMI -->
<g id="edge3" class="edge"><title>VBA&#45;&gt;WMI</title>
<path fill="none" stroke="black" d="M607.952,-310.307C599.95,-300.678 588.723,-287.167 579.09,-275.575"/>
<polygon fill="black" stroke="black" points="581.51,-273.011 572.427,-267.557 576.127,-277.485 581.51,-273.011"/>
</g>
<!-- VBA&#45;&gt;EXE -->
<g id="edge16" class="edge"><title>VBA&#45;&gt;EXE</title>
<path fill="none" stroke="black" d="M616.194,-341.061C612.343,-362.998 602.815,-402.613 581.5,-429 562.071,-453.053 531.711,-470.906 507.805,-482.269"/>
<polygon fill="black" stroke="black" points="506.303,-479.107 498.666,-486.451 509.216,-485.473 506.303,-479.107"/>
<text text-anchor="middle" x="640.5" y="-407.3" font-family="Times,serif" font-size="14.00">WScript.Shell</text>
</g>
<!-- VBA&#45;&gt;Win32API -->
<g id="edge11" class="edge"><title>VBA&#45;&gt;Win32API</title>
<path fill="none" stroke="black" d="M616.13,-306.803C613.223,-288.578 607.655,-258.224 599.5,-233 583.646,-183.965 576.247,-172.737 552.5,-127 550.884,-123.887 549.107,-120.669 547.293,-117.504"/>
<polygon fill="black" stroke="black" points="550.281,-115.681 542.182,-108.851 544.254,-119.241 550.281,-115.681"/>
</g>
<!-- EXE&#45;&gt;wmic.exe -->
<g id="edge28" class="edge"><title>EXE&#45;&gt;wmic.exe</title>
<path fill="none" stroke="black" d="M463.608,-479.799C458.163,-467.932 450.82,-451.928 444.635,-438.449"/>
<polygon fill="black" stroke="black" points="447.732,-436.805 440.38,-429.175 441.37,-439.724 447.732,-436.805"/>
</g>
<!-- EXE&#45;&gt;mshta.exe -->
<g id="edge29" class="edge"><title>EXE&#45;&gt;mshta.exe</title>
<path fill="none" stroke="black" d="M445.193,-479.799C425.369,-466.838 397.997,-448.941 376.353,-434.789"/>
<polygon fill="black" stroke="black" points="378.053,-431.719 367.768,-429.175 374.223,-437.577 378.053,-431.719"/>
</g>
<!-- winword.exe -->
<g id="node15" class="node"><title>winword.exe</title>
<polygon fill="none" stroke="black" points="573,-429 486,-429 486,-393 573,-393 573,-429"/>
<text text-anchor="middle" x="529.5" y="-407.3" font-family="Times,serif" font-size="14.00">winword.exe</text>
</g>
<!-- EXE&#45;&gt;winword.exe -->
<g id="edge30" class="edge"><title>EXE&#45;&gt;winword.exe</title>
<path fill="none" stroke="black" d="M483.237,-479.799C491.492,-467.702 502.68,-451.305 511.986,-437.667"/>
<polygon fill="black" stroke="black" points="515.035,-439.408 517.78,-429.175 509.253,-435.463 515.035,-439.408"/>
</g>
<!-- cmstp.exe -->
<g id="node17" class="node"><title>cmstp.exe</title>
<polygon fill="none" stroke="black" points="182.5,-429 110.5,-429 110.5,-393 182.5,-393 182.5,-429"/>
<text text-anchor="middle" x="146.5" y="-407.3" font-family="Times,serif" font-size="14.00">cmstp.exe</text>
</g>
<!-- EXE&#45;&gt;cmstp.exe -->
<g id="edge31" class="edge"><title>EXE&#45;&gt;cmstp.exe</title>
<path fill="none" stroke="black" d="M444.164,-490.622C395.27,-479.103 289.703,-453.72 201.5,-429 198.517,-428.164 195.449,-427.281 192.362,-426.375"/>
<polygon fill="black" stroke="black" points="193.096,-422.941 182.513,-423.431 191.092,-429.648 193.096,-422.941"/>
</g>
<!-- msxsl.exe -->
<g id="node18" class="node"><title>msxsl.exe</title>
<polygon fill="none" stroke="black" points="282,-429 211,-429 211,-393 282,-393 282,-429"/>
<text text-anchor="middle" x="246.5" y="-407.3" font-family="Times,serif" font-size="14.00">msxsl.exe</text>
</g>
<!-- EXE&#45;&gt;msxsl.exe -->
<g id="edge32" class="edge"><title>EXE&#45;&gt;msxsl.exe</title>
<path fill="none" stroke="black" d="M444.36,-486.747C406.495,-472.443 337.334,-446.315 291.64,-429.053"/>
<polygon fill="black" stroke="black" points="292.857,-425.771 282.266,-425.511 290.383,-432.32 292.857,-425.771"/>
</g>
<!-- powershell.exe -->
<g id="node20" class="node"><title>powershell.exe</title>
<polygon fill="none" stroke="black" points="803.5,-429 705.5,-429 705.5,-393 803.5,-393 803.5,-429"/>
<text text-anchor="middle" x="754.5" y="-407.3" font-family="Times,serif" font-size="14.00">powershell.exe</text>
</g>
<!-- EXE&#45;&gt;powershell.exe -->
<g id="edge33" class="edge"><title>EXE&#45;&gt;powershell.exe</title>
<path fill="none" stroke="black" d="M498.705,-491.917C529.351,-485.92 580.496,-475.089 623.5,-462 650.844,-453.677 680.662,-442.471 704.933,-432.777"/>
<polygon fill="black" stroke="black" points="706.32,-435.992 714.287,-429.007 703.703,-429.499 706.32,-435.992"/>
</g>
<!-- winword.exe&#45;&gt;VBA -->
<g id="edge2" class="edge"><title>winword.exe&#45;&gt;VBA</title>
<path fill="none" stroke="black" d="M547.51,-392.799C562.39,-378.589 583.481,-358.445 598.805,-343.809"/>
<polygon fill="black" stroke="black" points="601.416,-346.156 606.23,-336.719 596.581,-341.094 601.416,-346.156"/>
</g>
<!-- JScript&#45;&gt;C# -->
<g id="edge7" class="edge"><title>JScript&#45;&gt;C#</title>
<path fill="none" stroke="black" d="M318.597,-235.194C323.912,-222.286 331.712,-203.342 337.87,-188.386"/>
<polygon fill="black" stroke="black" points="341.25,-189.372 341.821,-178.793 334.777,-186.707 341.25,-189.372"/>
<g id="a_edge7&#45;label"><a xlink:href="https://github.com/tyranid/DotNetToJScript" xlink:title="DotNetToJScript">
<text text-anchor="middle" x="379" y="-203.8" font-family="Times,serif" font-size="14.00">DotNetToJScript</text>
</a>
</g>
</g>
<!-- cmstp.exe&#45;&gt;SCT -->
<g id="edge18" class="edge"><title>cmstp.exe&#45;&gt;SCT</title>
<path fill="none" stroke="black" d="M130.801,-392.833C121.118,-382.71 108.164,-369.973 95.5,-360 86.0802,-352.582 75.0113,-345.384 65.2126,-339.464"/>
<polygon fill="black" stroke="black" points="66.695,-336.275 56.3025,-334.214 63.1415,-342.306 66.695,-336.275"/>
<g id="a_edge18&#45;label"><a xlink:href="https://msitpros.com/?p=3960" xlink:title="INF">
<text text-anchor="middle" x="123.5" y="-363.8" font-family="Times,serif" font-size="14.00">INF</text>
</a>
</g>
</g>
<!-- msxsl.exe&#45;&gt;XML -->
<g id="edge8" class="edge"><title>msxsl.exe&#45;&gt;XML</title>
<path fill="none" stroke="black" d="M224.645,-392.799C206.044,-378.159 179.443,-357.223 160.734,-342.499"/>
<polygon fill="black" stroke="black" points="162.774,-339.65 152.751,-336.216 158.445,-345.151 162.774,-339.65"/>
</g>
<!-- Reflective DLL Injection -->
<g id="node19" class="node"><title>Reflective DLL Injection</title>
<polygon fill="none" stroke="black" points="767.5,-36 613.5,-36 613.5,-0 767.5,-0 767.5,-36"/>
<text text-anchor="middle" x="690.5" y="-14.3" font-family="Times,serif" font-size="14.00">Reflective DLL Injection</text>
</g>
<!-- powershell.exe&#45;&gt;EXE -->
<g id="edge17" class="edge"><title>powershell.exe&#45;&gt;EXE</title>
<path fill="none" stroke="black" d="M737.927,-429.132C726.068,-440.319 709.139,-454.243 691.5,-462 631.358,-488.449 554.156,-495.207 509.021,-496.762"/>
<polygon fill="black" stroke="black" points="508.709,-493.269 498.809,-497.043 508.902,-500.266 508.709,-493.269"/>
<text text-anchor="middle" x="750.5" y="-450.8" font-family="Times,serif" font-size="14.00">Invoke&#45;Item</text>
</g>
<!-- powershell.exe&#45;&gt;Win32API -->
<g id="edge13" class="edge"><title>powershell.exe&#45;&gt;Win32API</title>
<path fill="none" stroke="black" d="M745.004,-392.999C736.547,-376.24 725.5,-349.636 725.5,-325 725.5,-325 725.5,-325 725.5,-163 725.5,-133.142 643.434,-112.089 586.053,-101.018"/>
<polygon fill="black" stroke="black" points="586.482,-97.5369 576.008,-99.1316 585.19,-104.417 586.482,-97.5369"/>
</g>
<!-- XSL&#45;&gt;VB Script -->
<g id="edge5" class="edge"><title>XSL&#45;&gt;VB Script</title>
<path fill="none" stroke="black" d="M475.366,-309.31C470.461,-299.898 463.816,-287.146 458.038,-276.06"/>
<polygon fill="black" stroke="black" points="460.976,-274.124 453.251,-266.873 454.768,-277.359 460.976,-274.124"/>
</g>
<!-- XSL&#45;&gt;JScript -->
<g id="edge6" class="edge"><title>XSL&#45;&gt;JScript</title>
<path fill="none" stroke="black" d="M462.999,-314.855C433.822,-302.67 378.519,-279.573 343.689,-265.026"/>
<polygon fill="black" stroke="black" points="345.023,-261.79 334.447,-261.166 342.326,-268.25 345.023,-261.79"/>
</g>
<!-- Win32API&#45;&gt;Shellcode -->
<g id="edge15" class="edge"><title>Win32API&#45;&gt;Shellcode</title>
<path fill="none" stroke="black" d="M525.622,-72.8129C524.736,-64.3445 524.525,-53.9615 524.99,-44.5826"/>
<polygon fill="black" stroke="black" points="528.481,-44.826 525.801,-34.5758 521.504,-44.2601 528.481,-44.826"/>
</g>
<!-- Win32API&#45;&gt;Reflective DLL Injection -->
<g id="edge27" class="edge"><title>Win32API&#45;&gt;Reflective DLL Injection</title>
<path fill="none" stroke="black" d="M561.407,-76.6454C584.321,-66.4134 616.386,-52.0947 642.827,-40.2881"/>
<polygon fill="black" stroke="black" points="644.582,-43.3374 652.286,-36.0641 641.728,-36.9457 644.582,-43.3374"/>
</g>
</g>
</svg>
