<?xml version="1.0" encoding="UTF-8" standalone="no"?>
<!DOCTYPE svg PUBLIC "-//W3C//DTD SVG 1.1//EN"
 "http://www.w3.org/Graphics/SVG/1.1/DTD/svg11.dtd">
<!-- Generated by graphviz version 2.40.1 (20161225.0304)
 -->
<!-- Title: code&#45;exec Pages: 1 -->
<svg width="961pt" height="783pt"
 viewBox="0.00 0.00 960.56 783.00" xmlns="http://www.w3.org/2000/svg" xmlns:xlink="http://www.w3.org/1999/xlink">
<g id="graph0" class="graph" transform="scale(1 1) rotate(0) translate(4 779)">
<title>code&#45;exec</title>
<polygon fill="#ffffff" stroke="transparent" points="-4,4 -4,-779 956.5625,-779 956.5625,4 -4,4"/>
<text text-anchor="middle" x="476.2812" y="-10" font-family="Times,serif" font-size="20.00" fill="#000000">Code Exec Graph</text>
<!-- HTML Application -->
<g id="node1" class="node">
<title>HTML Application</title>
<polygon fill="none" stroke="#000000" points="250.3621,-528 137.2494,-510 250.3621,-492 363.4748,-510 250.3621,-528"/>
<text text-anchor="middle" x="250.3621" y="-506.3" font-family="Times,serif" font-size="14.00" fill="#000000">HTML Application</text>
</g>
<!-- VB Script -->
<g id="node8" class="node">
<title>VB Script</title>
<polygon fill="none" stroke="#000000" points="278.3621,-420 213.3409,-402 278.3621,-384 343.3833,-402 278.3621,-420"/>
<text text-anchor="middle" x="278.3621" y="-398.3" font-family="Times,serif" font-size="14.00" fill="#000000">VB Script</text>
</g>
<!-- HTML Application&#45;&gt;VB Script -->
<g id="edge4" class="edge">
<title>HTML Application&#45;&gt;VB Script</title>
<path fill="none" stroke="#000000" d="M254.8608,-492.6479C259.3366,-475.384 266.2656,-448.6579 271.442,-428.6918"/>
<polygon fill="#000000" stroke="#000000" points="274.8452,-429.5113 273.9669,-418.9529 268.0692,-427.7545 274.8452,-429.5113"/>
</g>
<!-- JScript -->
<g id="node18" class="node">
<title>JScript</title>
<polygon fill="none" stroke="#000000" points="456.3621,-420 406.5927,-402 456.3621,-384 506.1314,-402 456.3621,-420"/>
<text text-anchor="middle" x="456.3621" y="-398.3" font-family="Times,serif" font-size="14.00" fill="#000000">JScript</text>
</g>
<!-- HTML Application&#45;&gt;JScript -->
<g id="edge5" class="edge">
<title>HTML Application&#45;&gt;JScript</title>
<path fill="none" stroke="#000000" d="M276.8713,-496.102C315.4016,-475.9016 386.6482,-438.549 426.8182,-417.489"/>
<polygon fill="#000000" stroke="#000000" points="428.6158,-420.4985 435.8473,-412.7553 425.3654,-414.2989 428.6158,-420.4985"/>
</g>
<!-- settingcontent&#45;ms -->
<g id="node2" class="node">
<title>settingcontent&#45;ms</title>
<polygon fill="#d3d3d3" stroke="#d3d3d3" points="440.8621,-775 327.8621,-775 327.8621,-739 440.8621,-739 440.8621,-775"/>
<text text-anchor="middle" x="384.3621" y="-753.3" font-family="Times,serif" font-size="14.00" fill="#000000">settingcontent&#45;ms</text>
</g>
<!-- EXE -->
<g id="node16" class="node">
<title>EXE</title>
<polygon fill="none" stroke="#000000" points="462.3621,-702 408.3621,-702 408.3621,-666 462.3621,-666 462.3621,-702"/>
<text text-anchor="middle" x="435.3621" y="-680.3" font-family="Times,serif" font-size="14.00" fill="#000000">EXE</text>
</g>
<!-- settingcontent&#45;ms&#45;&gt;EXE -->
<g id="edge34" class="edge">
<title>settingcontent&#45;ms&#45;&gt;EXE</title>
<path fill="none" stroke="#000000" d="M396.9688,-738.9551C402.9761,-730.3564 410.2789,-719.9034 416.8961,-710.4316"/>
<polygon fill="#000000" stroke="#000000" points="419.8656,-712.2925 422.7236,-702.0904 414.1273,-708.2835 419.8656,-712.2925"/>
</g>
<!-- LNK -->
<g id="node3" class="node">
<title>LNK</title>
<polygon fill="#d3d3d3" stroke="#d3d3d3" points="513.3621,-775 459.3621,-775 459.3621,-739 513.3621,-739 513.3621,-775"/>
<text text-anchor="middle" x="486.3621" y="-753.3" font-family="Times,serif" font-size="14.00" fill="#000000">LNK</text>
</g>
<!-- LNK&#45;&gt;EXE -->
<g id="edge7" class="edge">
<title>LNK&#45;&gt;EXE</title>
<path fill="none" stroke="#000000" d="M473.7553,-738.9551C467.748,-730.3564 460.4452,-719.9034 453.828,-710.4316"/>
<polygon fill="#000000" stroke="#000000" points="456.5968,-708.2835 448.0005,-702.0904 450.8585,-712.2925 456.5968,-708.2835"/>
</g>
<!-- SCT -->
<g id="node4" class="node">
<title>SCT</title>
<polygon fill="none" stroke="#000000" points="514.3621,-528 476.4903,-510 514.3621,-492 552.2339,-510 514.3621,-528"/>
<text text-anchor="middle" x="514.3621" y="-506.3" font-family="Times,serif" font-size="14.00" fill="#000000">SCT</text>
</g>
<!-- SCT&#45;&gt;JScript -->
<g id="edge18" class="edge">
<title>SCT&#45;&gt;JScript</title>
<path fill="none" stroke="#000000" d="M506.5399,-495.4346C497.0477,-477.7594 480.8995,-447.6903 469.4892,-426.4437"/>
<polygon fill="#000000" stroke="#000000" points="472.4358,-424.5328 464.621,-417.3788 466.2689,-427.8447 472.4358,-424.5328"/>
</g>
<!-- Shellcode -->
<g id="node5" class="node">
<title>Shellcode</title>
<polygon fill="none" stroke="#000000" points="232.3621,-187 168.1797,-169 232.3621,-151 296.5445,-169 232.3621,-187"/>
<text text-anchor="middle" x="232.3621" y="-165.3" font-family="Times,serif" font-size="14.00" fill="#000000">Shellcode</text>
</g>
<!-- Win32API -->
<g id="node25" class="node">
<title>Win32API</title>
<ellipse fill="none" stroke="#000000" cx="278.3621" cy="-242" rx="49.2915" ry="18"/>
<text text-anchor="middle" x="278.3621" y="-238.3" font-family="Times,serif" font-size="14.00" fill="#000000">Win32API</text>
</g>
<!-- Shellcode&#45;&gt;Win32API -->
<g id="edge19" class="edge">
<title>Shellcode&#45;&gt;Win32API</title>
<path fill="none" stroke="#000000" d="M246.9498,-183.417C253.7847,-192.4087 261.6031,-204.2654 267.8667,-214.9586"/>
<polygon fill="#000000" stroke="#000000" points="264.9658,-216.9417 272.907,-223.9551 271.0727,-213.5202 264.9658,-216.9417"/>
</g>
<!-- XML -->
<g id="node6" class="node">
<title>XML</title>
<polygon fill="none" stroke="#000000" points="909.3621,-528 865.9604,-510 909.3621,-492 952.7638,-510 909.3621,-528"/>
<text text-anchor="middle" x="909.3621" y="-506.3" font-family="Times,serif" font-size="14.00" fill="#000000">XML</text>
</g>
<!-- XML&#45;&gt;JScript -->
<g id="edge31" class="edge">
<title>XML&#45;&gt;JScript</title>
<path fill="none" stroke="#000000" d="M881.7068,-503.4067C804.5755,-485.0178 586.8278,-433.1044 496.4517,-411.5578"/>
<polygon fill="#000000" stroke="#000000" points="497.1245,-408.1202 486.5854,-409.2056 495.5011,-414.9293 497.1245,-408.1202"/>
</g>
<!-- C# -->
<g id="node7" class="node">
<title>C#</title>
<polygon fill="none" stroke="#000000" points="409.3621,-333 380.0358,-315 409.3621,-297 438.6884,-315 409.3621,-333"/>
<text text-anchor="middle" x="409.3621" y="-311.3" font-family="Times,serif" font-size="14.00" fill="#000000">C#</text>
</g>
<!-- C#&#45;&gt;Win32API -->
<g id="edge1" class="edge">
<title>C#&#45;&gt;Win32API</title>
<path fill="none" stroke="#000000" d="M393.8202,-306.3393C374.4198,-295.5283 340.6231,-276.6951 314.5917,-262.189"/>
<polygon fill="#000000" stroke="#000000" points="316.1832,-259.0692 305.7442,-257.2587 312.7758,-265.1839 316.1832,-259.0692"/>
</g>
<!-- WMI -->
<g id="node10" class="node">
<title>WMI</title>
<ellipse fill="none" stroke="#000000" cx="178.3621" cy="-315" rx="30.5947" ry="18"/>
<text text-anchor="middle" x="178.3621" y="-311.3" font-family="Times,serif" font-size="14.00" fill="#000000">WMI</text>
</g>
<!-- VB Script&#45;&gt;WMI -->
<g id="edge24" class="edge">
<title>VB Script&#45;&gt;WMI</title>
<path fill="none" stroke="#000000" d="M262.2953,-388.0219C246.4957,-374.2763 222.1369,-353.0841 203.7227,-337.0638"/>
<polygon fill="#000000" stroke="#000000" points="205.5743,-334.0354 195.7326,-330.1123 200.9797,-339.3166 205.5743,-334.0354"/>
</g>
<!-- VB Script&#45;&gt;Win32API -->
<g id="edge23" class="edge">
<title>VB Script&#45;&gt;Win32API</title>
<path fill="none" stroke="#000000" d="M278.3621,-383.957C278.3621,-356.3487 278.3621,-303.3746 278.3621,-270.5255"/>
<polygon fill="#000000" stroke="#000000" points="281.8622,-270.2225 278.3621,-260.2226 274.8622,-270.2226 281.8622,-270.2225"/>
</g>
<!-- DLL -->
<g id="node9" class="node">
<title>DLL</title>
<polygon fill="none" stroke="#000000" points="363.3621,-114 309.3621,-114 309.3621,-78 363.3621,-78 363.3621,-114"/>
<text text-anchor="middle" x="336.3621" y="-92.3" font-family="Times,serif" font-size="14.00" fill="#000000">DLL</text>
</g>
<!-- DLL&#45;&gt;Win32API -->
<g id="edge3" class="edge">
<title>DLL&#45;&gt;Win32API</title>
<path fill="none" stroke="#000000" d="M330.968,-114.0363C325.2487,-132.5793 315.6363,-162.1706 305.3621,-187 301.539,-196.2392 296.8832,-206.1088 292.5216,-214.9002"/>
<polygon fill="#000000" stroke="#000000" points="289.3422,-213.4318 287.9576,-223.9357 295.5904,-216.5878 289.3422,-213.4318"/>
</g>
<!-- WMI&#45;&gt;Win32API -->
<g id="edge27" class="edge">
<title>WMI&#45;&gt;Win32API</title>
<path fill="none" stroke="#000000" d="M197.6431,-300.9249C211.8524,-290.5521 231.4657,-276.2343 247.8007,-264.3098"/>
<polygon fill="#000000" stroke="#000000" points="249.9847,-267.0489 255.9979,-258.3258 245.8574,-261.3951 249.9847,-267.0489"/>
</g>
<!-- wmic.exe -->
<g id="node11" class="node">
<title>wmic.exe</title>
<polygon fill="none" stroke="#000000" points="374.3621,-615 304.3621,-615 304.3621,-579 374.3621,-579 374.3621,-615"/>
<text text-anchor="middle" x="339.3621" y="-593.3" font-family="Times,serif" font-size="14.00" fill="#000000">wmic.exe</text>
</g>
<!-- wmic.exe&#45;&gt;WMI -->
<g id="edge28" class="edge">
<title>wmic.exe&#45;&gt;WMI</title>
<path fill="none" stroke="#000000" d="M303.9286,-582.1777C301.0426,-581.0703 298.1609,-579.9975 295.3621,-579 222.2597,-552.947 174.5337,-590.377 128.3621,-528 85.955,-470.7089 132.5839,-382.9606 160.5048,-340.1898"/>
<polygon fill="#000000" stroke="#000000" points="163.4851,-342.0295 166.1401,-331.7727 157.6684,-338.1351 163.4851,-342.0295"/>
</g>
<!-- XSL -->
<g id="node24" class="node">
<title>XSL</title>
<polygon fill="none" stroke="#000000" points="420.3621,-528 381.6526,-510 420.3621,-492 459.0716,-510 420.3621,-528"/>
<text text-anchor="middle" x="420.3621" y="-506.3" font-family="Times,serif" font-size="14.00" fill="#000000">XSL</text>
</g>
<!-- wmic.exe&#45;&gt;XSL -->
<g id="edge29" class="edge">
<title>wmic.exe&#45;&gt;XSL</title>
<path fill="none" stroke="#000000" d="M356.1453,-578.9735C369.3605,-564.7794 387.7775,-544.9983 401.5013,-530.2579"/>
<polygon fill="#000000" stroke="#000000" points="404.3273,-532.3588 408.5799,-522.6549 399.2041,-527.5889 404.3273,-532.3588"/>
<g id="a_edge29&#45;label"><a xlink:href="https://subt0x11.blogspot.com/2018/04/wmicexe-whitelisting-bypass-hacking.html" xlink:title="subtee">
<text text-anchor="middle" x="401.8621" y="-549.8" font-family="Times,serif" font-size="14.00" fill="#000000">subtee</text>
</a>
</g>
</g>
<!-- PubPrn.vbs -->
<g id="node12" class="node">
<title>PubPrn.vbs</title>
<polygon fill="none" stroke="#000000" points="665.8621,-615 586.8621,-615 586.8621,-579 665.8621,-579 665.8621,-615"/>
<text text-anchor="middle" x="626.3621" y="-593.3" font-family="Times,serif" font-size="14.00" fill="#000000">PubPrn.vbs</text>
</g>
<!-- PubPrn.vbs&#45;&gt;SCT -->
<g id="edge15" class="edge">
<title>PubPrn.vbs&#45;&gt;SCT</title>
<path fill="none" stroke="#000000" d="M603.1556,-578.9735C583.7324,-563.8859 556.1826,-542.4856 536.938,-527.5367"/>
<polygon fill="#000000" stroke="#000000" points="539.0378,-524.7359 528.9933,-521.3654 534.7436,-530.264 539.0378,-524.7359"/>
<text text-anchor="middle" x="602.3621" y="-549.8" font-family="Times,serif" font-size="14.00" fill="#000000">scrobj.dll</text>
</g>
<!-- regsrv32.exe -->
<g id="node13" class="node">
<title>regsrv32.exe</title>
<polygon fill="none" stroke="#000000" points="478.3621,-615 392.3621,-615 392.3621,-579 478.3621,-579 478.3621,-615"/>
<text text-anchor="middle" x="435.3621" y="-593.3" font-family="Times,serif" font-size="14.00" fill="#000000">regsrv32.exe</text>
</g>
<!-- regsrv32.exe&#45;&gt;SCT -->
<g id="edge17" class="edge">
<title>regsrv32.exe&#45;&gt;SCT</title>
<path fill="none" stroke="#000000" d="M443.7531,-578.8193C449.0501,-568.509 456.5501,-555.759 465.3621,-546 472.1159,-538.5203 480.647,-531.6127 488.6905,-525.8907"/>
<polygon fill="#000000" stroke="#000000" points="490.8067,-528.6846 497.1199,-520.1761 486.8787,-522.8905 490.8067,-528.6846"/>
<text text-anchor="middle" x="491.3621" y="-549.8" font-family="Times,serif" font-size="14.00" fill="#000000">scrobj.dll</text>
</g>
<!-- mshta.exe -->
<g id="node14" class="node">
<title>mshta.exe</title>
<polygon fill="none" stroke="#000000" points="286.3621,-615 214.3621,-615 214.3621,-579 286.3621,-579 286.3621,-615"/>
<text text-anchor="middle" x="250.3621" y="-593.3" font-family="Times,serif" font-size="14.00" fill="#000000">mshta.exe</text>
</g>
<!-- mshta.exe&#45;&gt;HTML Application -->
<g id="edge8" class="edge">
<title>mshta.exe&#45;&gt;HTML Application</title>
<path fill="none" stroke="#000000" d="M250.3621,-578.9735C250.3621,-567.1918 250.3621,-551.5607 250.3621,-538.1581"/>
<polygon fill="#000000" stroke="#000000" points="253.8622,-538.0033 250.3621,-528.0034 246.8622,-538.0034 253.8622,-538.0033"/>
</g>
<!-- VBA -->
<g id="node15" class="node">
<title>VBA</title>
<polygon fill="none" stroke="#000000" points="41.3621,-474 .1375,-456 41.3621,-438 82.5867,-456 41.3621,-474"/>
<text text-anchor="middle" x="41.3621" y="-452.3" font-family="Times,serif" font-size="14.00" fill="#000000">VBA</text>
</g>
<!-- VBA&#45;&gt;WMI -->
<g id="edge20" class="edge">
<title>VBA&#45;&gt;WMI</title>
<path fill="none" stroke="#000000" d="M45.9285,-439.6425C53.0246,-416.9601 68.7272,-375.9384 95.3621,-351 107.8711,-339.2877 124.7931,-331.0199 140.0946,-325.3878"/>
<polygon fill="#000000" stroke="#000000" points="141.5195,-328.5998 149.8533,-322.0577 139.2587,-321.975 141.5195,-328.5998"/>
</g>
<!-- VBA&#45;&gt;EXE -->
<g id="edge21" class="edge">
<title>VBA&#45;&gt;EXE</title>
<path fill="none" stroke="#000000" d="M33.0196,-470.7795C16.876,-501.5672 -14.0649,-573.1798 21.3621,-615 45.731,-643.7665 301.2744,-671.1174 398.2873,-680.5407"/>
<polygon fill="#000000" stroke="#000000" points="397.9523,-684.0246 408.2416,-681.4986 398.6229,-677.0568 397.9523,-684.0246"/>
<text text-anchor="middle" x="60.3621" y="-593.3" font-family="Times,serif" font-size="14.00" fill="#000000">WScript.Shell</text>
</g>
<!-- VBA&#45;&gt;Win32API -->
<g id="edge22" class="edge">
<title>VBA&#45;&gt;Win32API</title>
<path fill="none" stroke="#000000" d="M40.3503,-438.3336C40.1662,-423.2476 41.5448,-401.3077 49.3621,-384 58.9667,-362.7349 134.2577,-299.5604 138.3621,-297 166.7038,-279.3196 201.6772,-265.5759 229.5784,-256.2491"/>
<polygon fill="#000000" stroke="#000000" points="230.7073,-259.5624 239.13,-253.1351 228.5376,-252.9072 230.7073,-259.5624"/>
</g>
<!-- EXE&#45;&gt;wmic.exe -->
<g id="edge35" class="edge">
<title>EXE&#45;&gt;wmic.exe</title>
<path fill="none" stroke="#000000" d="M415.4708,-665.9735C401.4405,-653.2586 382.4631,-636.0603 366.9684,-622.0183"/>
<polygon fill="#000000" stroke="#000000" points="368.9881,-619.1251 359.2279,-615.0034 364.2874,-624.3121 368.9881,-619.1251"/>
</g>
<!-- EXE&#45;&gt;regsrv32.exe -->
<g id="edge36" class="edge">
<title>EXE&#45;&gt;regsrv32.exe</title>
<path fill="none" stroke="#000000" d="M435.3621,-665.9735C435.3621,-654.1918 435.3621,-638.5607 435.3621,-625.1581"/>
<polygon fill="#000000" stroke="#000000" points="438.8622,-625.0033 435.3621,-615.0034 431.8622,-625.0034 438.8622,-625.0033"/>
</g>
<!-- EXE&#45;&gt;mshta.exe -->
<g id="edge37" class="edge">
<title>EXE&#45;&gt;mshta.exe</title>
<path fill="none" stroke="#000000" d="M408.0647,-671.1629C378.54,-657.2783 330.9833,-634.9138 295.8042,-618.3701"/>
<polygon fill="#000000" stroke="#000000" points="297.2302,-615.173 286.6914,-614.0846 294.2512,-621.5075 297.2302,-615.173"/>
</g>
<!-- winword.exe -->
<g id="node17" class="node">
<title>winword.exe</title>
<polygon fill="#d3d3d3" stroke="#d3d3d3" points="195.8621,-615 108.8621,-615 108.8621,-579 195.8621,-579 195.8621,-615"/>
<text text-anchor="middle" x="152.3621" y="-593.3" font-family="Times,serif" font-size="14.00" fill="#000000">winword.exe</text>
</g>
<!-- EXE&#45;&gt;winword.exe -->
<g id="edge38" class="edge">
<title>EXE&#45;&gt;winword.exe</title>
<path fill="none" stroke="#000000" d="M408.3543,-676.2392C366.9617,-664.2711 285.1449,-640.3251 205.6712,-615.0456"/>
<polygon fill="#000000" stroke="#000000" points="206.5845,-611.6632 195.9938,-611.9569 204.4561,-618.3318 206.5845,-611.6632"/>
</g>
<!-- cmstp.exe -->
<g id="node19" class="node">
<title>cmstp.exe</title>
<polygon fill="none" stroke="#000000" points="568.3621,-615 496.3621,-615 496.3621,-579 568.3621,-579 568.3621,-615"/>
<text text-anchor="middle" x="532.3621" y="-593.3" font-family="Times,serif" font-size="14.00" fill="#000000">cmstp.exe</text>
</g>
<!-- EXE&#45;&gt;cmstp.exe -->
<g id="edge39" class="edge">
<title>EXE&#45;&gt;cmstp.exe</title>
<path fill="none" stroke="#000000" d="M455.4605,-665.9735C469.637,-653.2586 488.8121,-636.0603 504.4681,-622.0183"/>
<polygon fill="#000000" stroke="#000000" points="507.1819,-624.2859 512.2894,-615.0034 502.508,-619.0748 507.1819,-624.2859"/>
</g>
<!-- msxsl.exe -->
<g id="node20" class="node">
<title>msxsl.exe</title>
<polygon fill="none" stroke="#000000" points="884.8621,-615 813.8621,-615 813.8621,-579 884.8621,-579 884.8621,-615"/>
<text text-anchor="middle" x="849.3621" y="-593.3" font-family="Times,serif" font-size="14.00" fill="#000000">msxsl.exe</text>
</g>
<!-- EXE&#45;&gt;msxsl.exe -->
<g id="edge40" class="edge">
<title>EXE&#45;&gt;msxsl.exe</title>
<path fill="none" stroke="#000000" d="M462.4858,-683.332C515.3289,-681.4606 635.3889,-674.4047 732.3621,-648 757.5976,-641.1287 784.4347,-629.7519 806.032,-619.485"/>
<polygon fill="#000000" stroke="#000000" points="807.7796,-622.5275 815.2536,-615.0182 804.728,-616.2277 807.7796,-622.5275"/>
</g>
<!-- powershell.exe -->
<g id="node23" class="node">
<title>powershell.exe</title>
<polygon fill="none" stroke="#000000" points="781.3621,-615 683.3621,-615 683.3621,-579 781.3621,-579 781.3621,-615"/>
<text text-anchor="middle" x="732.3621" y="-593.3" font-family="Times,serif" font-size="14.00" fill="#000000">powershell.exe</text>
</g>
<!-- EXE&#45;&gt;powershell.exe -->
<g id="edge41" class="edge">
<title>EXE&#45;&gt;powershell.exe</title>
<path fill="none" stroke="#000000" d="M462.4234,-676.4667C505.2005,-664.5053 591.2939,-640.2166 673.2864,-615.5973"/>
<polygon fill="#000000" stroke="#000000" points="674.6955,-618.8283 683.262,-612.5941 672.6775,-612.1255 674.6955,-618.8283"/>
</g>
<!-- winword.exe&#45;&gt;VBA -->
<g id="edge30" class="edge">
<title>winword.exe&#45;&gt;VBA</title>
<path fill="none" stroke="#000000" d="M117.2498,-578.9503C109.4234,-573.8596 101.6053,-567.8204 95.3621,-561 73.9975,-537.6603 58.7645,-504.292 50.0362,-481.4745"/>
<polygon fill="#000000" stroke="#000000" points="53.2186,-479.9871 46.485,-471.8072 46.6479,-482.4008 53.2186,-479.9871"/>
</g>
<!-- JScript&#45;&gt;C# -->
<g id="edge6" class="edge">
<title>JScript&#45;&gt;C#</title>
<path fill="none" stroke="#000000" d="M448.1753,-386.8458C440.8137,-373.2189 429.9009,-353.0187 421.52,-337.5051"/>
<polygon fill="#000000" stroke="#000000" points="424.5157,-335.6866 416.6832,-328.552 418.357,-339.0138 424.5157,-335.6866"/>
<g id="a_edge6&#45;label"><a xlink:href="https://github.com/tyranid/DotNetToJScript" xlink:title="DotNetToJScript">
<text text-anchor="middle" x="481.8621" y="-354.8" font-family="Times,serif" font-size="14.00" fill="#000000">DotNetToJScript</text>
</a>
</g>
</g>
<!-- cmstp.exe&#45;&gt;SCT -->
<g id="edge2" class="edge">
<title>cmstp.exe&#45;&gt;SCT</title>
<path fill="none" stroke="#000000" d="M528.6325,-578.9735C526.0887,-566.6785 522.6775,-550.1914 519.8282,-536.4196"/>
<polygon fill="#000000" stroke="#000000" points="523.236,-535.6154 517.7825,-526.532 516.3812,-537.0337 523.236,-535.6154"/>
<g id="a_edge2&#45;label"><a xlink:href="https://bohops.com/2018/02/26/leveraging-inf-sct-fetch-execute-techniques-for-bypass-evasion-persistence/" xlink:title="INF">
<text text-anchor="middle" x="535.3621" y="-549.8" font-family="Times,serif" font-size="14.00" fill="#000000">INF</text>
</a>
</g>
</g>
<!-- msxsl.exe&#45;&gt;XML -->
<g id="edge9" class="edge">
<title>msxsl.exe&#45;&gt;XML</title>
<path fill="none" stroke="#000000" d="M861.7941,-578.9735C871.0608,-565.5369 883.7803,-547.0936 893.7351,-532.6592"/>
<polygon fill="#000000" stroke="#000000" points="896.7243,-534.4896 899.5204,-524.2704 890.9618,-530.5154 896.7243,-534.4896"/>
</g>
<!-- Reflection.Assembly -->
<g id="node21" class="node">
<title>Reflection.Assembly</title>
<polygon fill="none" stroke="#000000" points="690.3621,-528 570.0428,-510 690.3621,-492 810.6813,-510 690.3621,-528"/>
<text text-anchor="middle" x="690.3621" y="-506.3" font-family="Times,serif" font-size="14.00" fill="#000000">Reflection.Assembly</text>
</g>
<!-- Reflection.Assembly&#45;&gt;VB Script -->
<g id="edge14" class="edge">
<title>Reflection.Assembly&#45;&gt;VB Script</title>
<path fill="none" stroke="#000000" d="M641.3846,-499.3225C610.5774,-492.4518 570.0413,-483.1288 534.3621,-474 458.2039,-454.5144 370.1048,-429.0979 319.6397,-414.26"/>
<polygon fill="#000000" stroke="#000000" points="320.3431,-410.8185 309.7616,-411.3493 318.3646,-417.5331 320.3431,-410.8185"/>
</g>
<!-- Reflection.Assembly&#45;&gt;JScript -->
<g id="edge13" class="edge">
<title>Reflection.Assembly&#45;&gt;JScript</title>
<path fill="none" stroke="#000000" d="M660.7258,-496.3217C616.3857,-475.8571 533.1529,-437.4419 487.7904,-416.5054"/>
<polygon fill="#000000" stroke="#000000" points="488.9933,-413.2058 478.447,-412.193 486.0599,-419.5615 488.9933,-413.2058"/>
</g>
<!-- Reflective DLL Injection -->
<g id="node22" class="node">
<title>Reflective DLL Injection</title>
<polygon fill="none" stroke="#000000" points="506.3621,-187 352.3621,-187 352.3621,-151 506.3621,-151 506.3621,-187"/>
<text text-anchor="middle" x="429.3621" y="-165.3" font-family="Times,serif" font-size="14.00" fill="#000000">Reflective DLL Injection</text>
</g>
<!-- Reflective DLL Injection&#45;&gt;DLL -->
<g id="edge16" class="edge">
<title>Reflective DLL Injection&#45;&gt;DLL</title>
<path fill="none" stroke="#000000" d="M406.3733,-150.9551C394.6364,-141.7422 380.1875,-130.4006 367.47,-120.418"/>
<polygon fill="#000000" stroke="#000000" points="369.4359,-117.5117 359.4087,-114.0904 365.1138,-123.018 369.4359,-117.5117"/>
</g>
<!-- powershell.exe&#45;&gt;EXE -->
<g id="edge10" class="edge">
<title>powershell.exe&#45;&gt;EXE</title>
<path fill="none" stroke="#000000" d="M699.6858,-615.0948C678.712,-626.0316 650.5858,-639.4637 624.3621,-648 573.1198,-664.6803 511.4011,-674.6343 472.7617,-679.7151"/>
<polygon fill="#000000" stroke="#000000" points="471.9815,-676.2861 462.5033,-681.0205 472.8652,-683.2301 471.9815,-676.2861"/>
<text text-anchor="middle" x="694.3621" y="-636.8" font-family="Times,serif" font-size="14.00" fill="#000000">Invoke&#45;Item</text>
</g>
<!-- powershell.exe&#45;&gt;Reflection.Assembly -->
<g id="edge12" class="edge">
<title>powershell.exe&#45;&gt;Reflection.Assembly</title>
<path fill="none" stroke="#000000" d="M723.6596,-578.9735C717.6468,-566.5183 709.5571,-549.7611 702.8572,-535.8827"/>
<polygon fill="#000000" stroke="#000000" points="705.9829,-534.3067 698.4834,-526.8228 699.679,-537.35 705.9829,-534.3067"/>
</g>
<!-- powershell.exe&#45;&gt;Win32API -->
<g id="edge11" class="edge">
<title>powershell.exe&#45;&gt;Win32API</title>
<path fill="none" stroke="#000000" d="M780.3998,-578.9159C808.4461,-564.9083 838.3621,-542.3782 838.3621,-510 838.3621,-510 838.3621,-510 838.3621,-315 838.3621,-264.9723 482.4024,-248.314 338.0763,-243.6159"/>
<polygon fill="#000000" stroke="#000000" points="338.1644,-240.1171 328.0583,-243.298 337.9423,-247.1135 338.1644,-240.1171"/>
</g>
<!-- XSL&#45;&gt;VB Script -->
<g id="edge32" class="edge">
<title>XSL&#45;&gt;VB Script</title>
<path fill="none" stroke="#000000" d="M405.434,-498.6462C381.3249,-480.3097 333.5334,-443.9613 303.9241,-421.4415"/>
<polygon fill="#000000" stroke="#000000" points="305.8057,-418.4753 295.7274,-415.2075 301.5681,-424.047 305.8057,-418.4753"/>
</g>
<!-- XSL&#45;&gt;JScript -->
<g id="edge33" class="edge">
<title>XSL&#45;&gt;JScript</title>
<path fill="none" stroke="#000000" d="M425.674,-494.0642C431.4632,-476.6966 440.8151,-448.6409 447.6756,-428.0594"/>
<polygon fill="#000000" stroke="#000000" points="451.0684,-428.9489 450.9103,-418.3552 444.4276,-426.7352 451.0684,-428.9489"/>
</g>
<!-- Win32API&#45;&gt;Shellcode -->
<g id="edge25" class="edge">
<title>Win32API&#45;&gt;Shellcode</title>
<path fill="none" stroke="#000000" d="M261.6208,-224.7C255.0472,-215.7537 247.8403,-204.6561 242.0919,-194.7268"/>
<polygon fill="#000000" stroke="#000000" points="244.9918,-192.7376 237.0958,-185.6733 238.8631,-196.1197 244.9918,-192.7376"/>
</g>
<!-- Win32API&#45;&gt;Reflective DLL Injection -->
<g id="edge26" class="edge">
<title>Win32API&#45;&gt;Reflective DLL Injection</title>
<path fill="none" stroke="#000000" d="M308.1948,-227.5775C329.5344,-217.2611 358.6705,-203.1754 383.0236,-191.402"/>
<polygon fill="#000000" stroke="#000000" points="384.6171,-194.5193 392.0968,-187.0157 381.5703,-188.2171 384.6171,-194.5193"/>
</g>
</g>
</svg>
